PathFileType	4	(X/Y/Z)	D:\TRACE\spot_10-12-23\spot_body_baseline_4-v60.trc
DataRate	CameraRate	NumFrames	NumMarkers	Units	OrigDataRate	OrigDataStartFrame	OrigNumFrames
100.00	100.00	      14	9	mm	100.00	2626	      7000
Frame#	Time	front left toe			Front right toe			aft left toe			aft right toe			Arm			FL body			FR body			AL Body			AR Body			
		X1	Y1	Z1	X2	Y2	Z2	X3	Y3	Z3	X4	Y4	Z4	X5	Y5	Z5	X6	Y6	Z6	X7	Y7	Z7	X8	Y8	Z8	X9	Y9	Z9	

2626	26.250	-212.99902	20.97069	177.83394	259.81003	19.20968	130.67233	-168.33098	23.22575	616.35223	336.00815	18.89275	598.32800	24.35954	806.69965	-56.85871	-59.25789	544.47424	-28.02589	93.07869	548.95331	-44.79865	34.95024	554.24719	850.49176	185.61986	552.46228	836.39813	
2627	26.260	-213.00856	20.98598	177.81398	260.14844	19.29583	130.76430	-168.34282	23.20401	616.35468	335.89377	18.87234	598.36072	24.31453	806.69208	-56.87620	-59.34778	544.47766	-28.02608	93.04329	548.91675	-44.75726	34.76364	554.25891	850.43317	185.56065	552.47614	836.39771	
2628	26.270	-213.00156	20.99986	177.81590	260.04037	19.32405	130.82257	-168.36023	23.18108	616.35425	335.97739	18.91731	598.36841	24.31490	806.68127	-56.89315	-59.41624	544.47522	-28.03420	92.92953	548.88416	-44.82001	34.64093	554.27283	850.44159	185.50909	552.46674	836.40253	
2629	26.280	-213.01762	20.98617	177.80481	260.02728	19.33621	130.83009	-168.37811	23.17611	616.36090	335.92743	18.89460	598.37646	24.23041	806.66290	-56.91599	-59.44458	544.43390	-28.01660	92.87548	548.84790	-44.78868	34.51705	554.28973	850.45105	185.44139	552.44427	836.40302	
2630	26.290	-213.00919	21.03292	177.79352	260.04221	19.34192	130.83450	-168.35001	23.17099	616.37000	336.00674	18.91030	598.37805	24.25920	806.61346	-56.90876	-59.59386	544.46289	-28.03613	92.81937	548.81494	-44.77993	34.47281	554.33398	850.44525	185.39822	552.42828	836.43622	
2631	26.300	-212.99437	20.96456	177.84198	260.01956	19.33711	130.81459	-168.34534	23.15049	616.36572	335.97925	18.90721	598.35376	24.19364	806.59619	-56.94061	-59.62665	544.38678	-28.02808	92.77374	548.77783	-44.77780	34.44847	554.33264	850.42145	185.31494	552.47314	836.43195	
2632	26.310	-213.02835	20.97701	177.81038	259.99274	19.24760	130.72635	-168.35751	23.13633	616.35889	335.98431	18.89007	598.34900	24.21753	806.53210	-56.92038	-59.71086	544.35858	-28.05862	92.67959	548.69031	-44.77103	34.44601	554.38818	850.44507	185.24268	552.39124	836.44519	
2633	26.320	-212.98668	20.96019	177.83714	260.00580	19.35337	130.80130	-168.36011	23.15399	616.37689	335.94843	18.89682	598.36377	24.19563	806.49573	-56.92674	-59.77662	544.39948	-27.99329	92.47711	548.64771	-44.78352	34.43188	554.38831	850.43280	185.20338	552.42572	836.45447	
2634	26.330	-212.99338	20.94499	177.86897	259.85358	19.21914	130.71143	-168.36292	23.16670	616.37665	335.99033	18.89943	598.33093	24.20342	806.51904	-56.93784	-59.88898	544.41754	-27.96302	91.98978	548.77496	-44.79017	34.41655	554.36652	850.41779	185.55054	553.21576	837.25549	
2635	26.340	-212.97806	20.91878	177.87750	259.99457	19.40599	130.77762	-168.36191	23.16737	616.39270	335.97766	18.88461	598.33954	24.12179	806.54688	-56.91879	-59.94054	544.43970	-27.97562	92.19976	548.63031	-44.81504	34.33424	554.37402	850.42664	185.08057	552.33496	836.48499	
2636	26.350	-212.99933	20.90571	177.88927	260.05481	19.38072	130.79565	-168.36971	23.16239	616.39844	335.93292	18.88724	598.30212	24.03802	806.51337	-56.92249	-59.98784	544.43848	-27.96281	92.09800	548.66260	-44.84493	34.31176	554.39514	850.41553	185.02353	552.29810	836.47015	
2637	26.360	-213.04877	20.87944	177.88791	259.71762	19.25491	130.65019	-168.37781	23.15066	616.36664	335.96530	18.90743	598.35681	23.95113	806.56470	-56.84970	-60.02951	544.43555	-27.97009	91.94064	548.67950	-44.80845	34.22349	554.38354	850.45142	184.87898	552.32275	836.51764	
2638	26.370	-213.02313	20.85427	177.87984	259.98898	19.39677	130.79330	-168.35783	23.15096	616.37238	335.98990	18.95920	598.35089	23.90839	806.55011	-56.83734	-60.10231	544.42194	-27.97661	91.84550	548.64349	-44.80708	34.14069	554.38702	850.43890	185.24133	553.14160	837.29462	
2639	26.380	-213.03146	20.90306	177.86436	259.89792	19.44471	130.75383	-168.36626	23.14177	616.37323	335.97885	18.98501	598.37164	23.91746	806.52075	-56.86557	-60.13497	544.42407	-27.91178	91.64055	548.72113	-45.13774	34.10268	554.41736	850.41193	184.82388	552.32086	836.53186	
